<svg id="Layer_1" height="300" viewBox="0 0 512 512" width="300" xmlns="http://www.w3.org/2000/svg" data-name="Layer 1" version="1.1" xmlns:xlink="http://www.w3.org/1999/xlink" xmlns:svgjs="http://svgjs.dev/svgjs"><g width="100%" height="100%" transform="matrix(1,0,0,1,0,0)"><path d="m439.107 35.369h-45.844v-19.369a16 16 0 0 0 -32 0v19.369h-210.526v-19.369a16 16 0 0 0 -32 0v19.369h-45.844a55.27 55.27 0 0 0 -55.208 55.208v366.215a55.271 55.271 0 0 0 55.208 55.208h161.525a16 16 0 0 0 0-32h-161.525a23.234 23.234 0 0 1 -23.208-23.208v-268.16h412.63v62a16 16 0 0 0 32 0v-160.055a55.27 55.27 0 0 0 -55.208-55.208zm-389.422 121.263v-66.055a23.234 23.234 0 0 1 23.208-23.208h45.844v19.368a16 16 0 0 0 32 0v-19.368h210.526v19.368a16 16 0 1 0 32 0v-19.368h45.844a23.234 23.234 0 0 1 23.208 23.208v66.055zm370.001 140.368a74.569 74.569 0 0 0 -62.826 114.829l-72.86 72.858a16 16 0 1 0 22.627 22.626l72.858-72.857a74.611 74.611 0 1 0 40.201-137.456zm0 117.258a42.629 42.629 0 1 1 42.628-42.629 42.677 42.677 0 0 1 -42.628 42.629z" fill="#ffffff" fill-opacity="1" data-original-color="#000000ff" stroke="none" stroke-opacity="1"/></g></svg>