<svg width="21" height="18" viewBox="0 0 21 18" fill="none" xmlns="http://www.w3.org/2000/svg">
<path d="M20.126 1.30005V5.05005C20.126 5.24896 20.047 5.43973 19.9063 5.58038C19.7657 5.72103 19.5749 5.80005 19.376 5.80005C19.1771 5.80005 18.9863 5.72103 18.8456 5.58038C18.705 5.43973 18.626 5.24896 18.626 5.05005V2.05005H15.626C15.4271 2.05005 15.2363 1.97103 15.0956 1.83038C14.955 1.68973 14.876 1.49896 14.876 1.30005C14.876 1.10114 14.955 0.910371 15.0956 0.769719C15.2363 0.629067 15.4271 0.550049 15.626 0.550049H19.376C19.5749 0.550049 19.7657 0.629067 19.9063 0.769719C20.047 0.910371 20.126 1.10114 20.126 1.30005ZM5.12598 15.55H2.12598V12.55C2.12598 12.3511 2.04696 12.1604 1.90631 12.0197C1.76565 11.8791 1.57489 11.8 1.37598 11.8C1.17706 11.8 0.986299 11.8791 0.845646 12.0197C0.704994 12.1604 0.625977 12.3511 0.625977 12.55V16.3C0.625977 16.499 0.704994 16.6897 0.845646 16.8304C0.986299 16.971 1.17706 17.05 1.37598 17.05H5.12598C5.32489 17.05 5.51565 16.971 5.65631 16.8304C5.79696 16.6897 5.87598 16.499 5.87598 16.3C5.87598 16.1011 5.79696 15.9104 5.65631 15.7697C5.51565 15.6291 5.32489 15.55 5.12598 15.55ZM19.376 11.8C19.1771 11.8 18.9863 11.8791 18.8456 12.0197C18.705 12.1604 18.626 12.3511 18.626 12.55V15.55H15.626C15.4271 15.55 15.2363 15.6291 15.0956 15.7697C14.955 15.9104 14.876 16.1011 14.876 16.3C14.876 16.499 14.955 16.6897 15.0956 16.8304C15.2363 16.971 15.4271 17.05 15.626 17.05H19.376C19.5749 17.05 19.7657 16.971 19.9063 16.8304C20.047 16.6897 20.126 16.499 20.126 16.3V12.55C20.126 12.3511 20.047 12.1604 19.9063 12.0197C19.7657 11.8791 19.5749 11.8 19.376 11.8ZM1.37598 5.80005C1.57489 5.80005 1.76565 5.72103 1.90631 5.58038C2.04696 5.43973 2.12598 5.24896 2.12598 5.05005V2.05005H5.12598C5.32489 2.05005 5.51565 1.97103 5.65631 1.83038C5.79696 1.68973 5.87598 1.49896 5.87598 1.30005C5.87598 1.10114 5.79696 0.910371 5.65631 0.769719C5.51565 0.629067 5.32489 0.550049 5.12598 0.550049H1.37598C1.17706 0.550049 0.986299 0.629067 0.845646 0.769719C0.704994 0.910371 0.625977 1.10114 0.625977 1.30005V5.05005C0.625977 5.24896 0.704994 5.43973 0.845646 5.58038C0.986299 5.72103 1.17706 5.80005 1.37598 5.80005ZM16.001 12.4563L10.751 15.4563C10.6376 15.5211 10.5093 15.5552 10.3788 15.5552C10.2482 15.5552 10.1199 15.5211 10.0066 15.4563L4.75098 12.4563C4.63597 12.3899 4.54065 12.2942 4.47476 12.1789C4.40888 12.0636 4.37479 11.9328 4.37598 11.8V5.80005C4.37479 5.66726 4.40888 5.53653 4.47476 5.42123C4.54065 5.30593 4.63597 5.21019 4.75098 5.1438L10.001 2.1438C10.1143 2.07901 10.2426 2.04493 10.3732 2.04493C10.5037 2.04493 10.632 2.07901 10.7454 2.1438L15.9954 5.1438C16.1104 5.21019 16.2057 5.30593 16.2716 5.42123C16.3374 5.53653 16.3715 5.66726 16.3704 5.80005V11.8C16.3721 11.9323 16.3389 12.0626 16.274 12.1779C16.2091 12.2931 16.1149 12.3892 16.001 12.4563ZM6.63723 5.80005L10.376 7.93661L14.1147 5.80005L10.376 3.66349L6.63723 5.80005ZM5.87598 11.365L9.62598 13.5072V9.23505L5.87598 7.09286V11.365ZM14.876 11.365V7.09286L11.126 9.23505V13.5072L14.876 11.365Z" fill="#EFE6D2"/>
</svg>
