<svg width="21" height="19" viewBox="0 0 21 19" fill="none" xmlns="http://www.w3.org/2000/svg">
<path d="M17.876 3.05005H15.2772L13.9994 1.1338C13.931 1.03119 13.8382 0.947052 13.7295 0.888835C13.6208 0.830619 13.4993 0.800123 13.376 0.800049H7.37598C7.25263 0.800123 7.1312 0.830619 7.02245 0.888835C6.91371 0.947052 6.821 1.03119 6.75254 1.1338L5.47379 3.05005H2.87598C2.27924 3.05005 1.70694 3.2871 1.28499 3.70906C0.86303 4.13102 0.625977 4.70331 0.625977 5.30005V15.8C0.625977 16.3968 0.86303 16.9691 1.28499 17.391C1.70694 17.813 2.27924 18.05 2.87598 18.05H17.876C18.4727 18.05 19.045 17.813 19.467 17.391C19.8889 16.9691 20.126 16.3968 20.126 15.8V5.30005C20.126 4.70331 19.8889 4.13102 19.467 3.70906C19.045 3.2871 18.4727 3.05005 17.876 3.05005ZM18.626 15.8C18.626 15.999 18.547 16.1897 18.4063 16.3304C18.2657 16.471 18.0749 16.55 17.876 16.55H2.87598C2.67706 16.55 2.4863 16.471 2.34565 16.3304C2.20499 16.1897 2.12598 15.999 2.12598 15.8V5.30005C2.12598 5.10114 2.20499 4.91037 2.34565 4.76972C2.4863 4.62907 2.67706 4.55005 2.87598 4.55005H5.87598C5.99948 4.55013 6.1211 4.51971 6.23002 4.46148C6.33895 4.40326 6.43181 4.31904 6.50035 4.2163L7.77723 2.30005H12.9738L14.2516 4.2163C14.3201 4.31904 14.413 4.40326 14.5219 4.46148C14.6309 4.51971 14.7525 4.55013 14.876 4.55005H17.876C18.0749 4.55005 18.2657 4.62907 18.4063 4.76972C18.547 4.91037 18.626 5.10114 18.626 5.30005V15.8ZM10.376 6.05005C9.56013 6.05005 8.7626 6.29198 8.08425 6.74524C7.4059 7.1985 6.87719 7.84273 6.56497 8.59648C6.25276 9.35022 6.17107 10.1796 6.33024 10.9798C6.4894 11.78 6.88227 12.515 7.45916 13.0919C8.03605 13.6688 8.77106 14.0616 9.57123 14.2208C10.3714 14.38 11.2008 14.2983 11.9545 13.9861C12.7083 13.6738 13.3525 13.1451 13.8058 12.4668C14.259 11.7884 14.501 10.9909 14.501 10.175C14.4997 9.08141 14.0647 8.03292 13.2914 7.2596C12.5181 6.48628 11.4696 6.05129 10.376 6.05005ZM10.376 12.8C9.8568 12.8 9.34928 12.6461 8.9176 12.3577C8.48593 12.0692 8.14947 11.6592 7.95079 11.1796C7.75211 10.6999 7.70013 10.1721 7.80141 9.66294C7.9027 9.15374 8.15271 8.68601 8.51982 8.31889C8.88693 7.95178 9.35466 7.70177 9.86386 7.60049C10.3731 7.4992 10.9009 7.55118 11.3805 7.74986C11.8602 7.94854 12.2701 8.285 12.5586 8.71668C12.847 9.14836 13.001 9.65587 13.001 10.175C13.001 10.8712 12.7244 11.5389 12.2321 12.0312C11.7398 12.5235 11.0722 12.8 10.376 12.8Z" fill="#EFE6D2"/>
</svg>
