<svg width="24" height="24" viewBox="0 0 24 24" fill="none" xmlns="http://www.w3.org/2000/svg">
<path d="M12.7496 7.50009V11.5754L16.1358 13.607C16.3064 13.7094 16.4293 13.8754 16.4775 14.0685C16.5256 14.2615 16.4951 14.4658 16.3927 14.6363C16.2903 14.8069 16.1243 14.9298 15.9312 14.978C15.7382 15.0261 15.5339 14.9957 15.3633 14.8932L11.6133 12.6432C11.5023 12.5765 11.4105 12.4823 11.3468 12.3696C11.283 12.2569 11.2495 12.1296 11.2496 12.0001V7.50009C11.2496 7.30118 11.3286 7.11041 11.4693 6.96976C11.6099 6.82911 11.8007 6.75009 11.9996 6.75009C12.1985 6.75009 12.3893 6.82911 12.5299 6.96976C12.6706 7.11041 12.7496 7.30118 12.7496 7.50009ZM20.9996 5.25009C20.8007 5.25009 20.6099 5.32911 20.4693 5.46976C20.3286 5.61042 20.2496 5.80118 20.2496 6.00009V7.68759C19.6543 6.99759 19.0468 6.33291 18.3633 5.64103C17.1126 4.39013 15.5209 3.53555 13.7872 3.18408C12.0536 2.83261 10.2548 2.99983 8.61557 3.66484C6.97639 4.32986 5.56953 5.46318 4.57077 6.9232C3.57202 8.38321 3.02566 10.1052 2.99997 11.8739C2.97428 13.6427 3.4704 15.3798 4.42633 16.8682C5.38226 18.3566 6.75561 19.5303 8.37479 20.2427C9.99397 20.955 11.7872 21.1744 13.5303 20.8734C15.2735 20.5724 16.8893 19.7645 18.1758 18.5504C18.2475 18.4827 18.3051 18.4015 18.3454 18.3115C18.3857 18.2216 18.4078 18.1245 18.4106 18.026C18.4134 17.9274 18.3968 17.8293 18.3616 17.7372C18.3265 17.6451 18.2735 17.5608 18.2058 17.4892C18.1381 17.4175 18.057 17.3599 17.967 17.3196C17.877 17.2793 17.78 17.2571 17.6814 17.2544C17.5829 17.2516 17.4847 17.2682 17.3926 17.3034C17.3005 17.3385 17.2162 17.3914 17.1446 17.4592C16.0721 18.4698 14.7257 19.1422 13.2734 19.3923C11.8211 19.6423 10.3273 19.459 8.97859 18.8652C7.62987 18.2713 6.48598 17.2933 5.68975 16.0533C4.89353 14.8132 4.48026 13.3661 4.50157 11.8926C4.52287 10.4191 4.97779 8.98452 5.80953 7.76801C6.64126 6.5515 7.81295 5.60697 9.17827 5.05239C10.5436 4.4978 12.042 4.35772 13.4865 4.64965C14.931 4.94157 16.2574 5.65257 17.3002 6.69384C18.0633 7.46634 18.7318 8.21072 19.4058 9.00009H17.2496C17.0507 9.00009 16.8599 9.07911 16.7193 9.21976C16.5786 9.36042 16.4996 9.55118 16.4996 9.75009C16.4996 9.94901 16.5786 10.1398 16.7193 10.2804C16.8599 10.4211 17.0507 10.5001 17.2496 10.5001H20.9996C21.1985 10.5001 21.3893 10.4211 21.5299 10.2804C21.6706 10.1398 21.7496 9.94901 21.7496 9.75009V6.00009C21.7496 5.80118 21.6706 5.61042 21.5299 5.46976C21.3893 5.32911 21.1985 5.25009 20.9996 5.25009Z" fill="#F34A23"/>
</svg>
