<svg width="24" height="24" viewBox="0 0 24 24" fill="none" xmlns="http://www.w3.org/2000/svg">
<path d="M12.0005 7.5C12.5938 7.5 13.1738 7.32405 13.6672 6.99441C14.1605 6.66477 14.5451 6.19623 14.7721 5.64805C14.9992 5.09987 15.0586 4.49667 14.9428 3.91473C14.8271 3.33279 14.5414 2.79824 14.1218 2.37868C13.7022 1.95912 13.1677 1.6734 12.5858 1.55765C12.0038 1.44189 11.4006 1.5013 10.8524 1.72836C10.3043 1.95543 9.83572 2.33994 9.50607 2.83329C9.17643 3.32664 9.00048 3.90666 9.00048 4.5C9.00048 5.29565 9.31655 6.05871 9.87916 6.62132C10.4418 7.18393 11.2048 7.5 12.0005 7.5ZM12.0005 3C12.2972 3 12.5872 3.08797 12.8338 3.2528C13.0805 3.41762 13.2728 3.65189 13.3863 3.92598C13.4998 4.20007 13.5295 4.50167 13.4717 4.79264C13.4138 5.08361 13.2709 5.35088 13.0611 5.56066C12.8514 5.77044 12.5841 5.9133 12.2931 5.97118C12.0021 6.02906 11.7005 5.99935 11.4265 5.88582C11.1524 5.77229 10.9181 5.58003 10.7533 5.33336C10.5885 5.08668 10.5005 4.79667 10.5005 4.5C10.5005 4.10218 10.6585 3.72065 10.9398 3.43934C11.2211 3.15804 11.6027 3 12.0005 3ZM21.6436 12.3863C21.5929 12.471 21.526 12.5449 21.4466 12.6037C21.3673 12.6624 21.2771 12.705 21.1813 12.7289C21.0855 12.7527 20.9859 12.7574 20.8883 12.7427C20.7907 12.728 20.6969 12.6942 20.6124 12.6431C20.5795 12.6234 17.3208 10.7128 12.7486 10.5178V13.9688L18.5611 20.5059C18.6265 20.5798 18.6767 20.6658 18.7088 20.7591C18.7409 20.8524 18.7544 20.951 18.7484 21.0495C18.7424 21.148 18.717 21.2443 18.6738 21.3329C18.6306 21.4216 18.5703 21.5009 18.4964 21.5663C18.4226 21.6316 18.3365 21.6818 18.2433 21.7139C18.15 21.7461 18.0513 21.7595 17.9529 21.7535C17.8544 21.7475 17.7581 21.7222 17.6694 21.6789C17.5808 21.6357 17.5015 21.5754 17.4361 21.5016L12.0005 15.375L6.56298 21.4978C6.49761 21.5717 6.41833 21.632 6.32966 21.6752C6.24099 21.7184 6.14468 21.7437 6.04622 21.7498C5.94776 21.7558 5.84909 21.7423 5.75582 21.7102C5.66256 21.6781 5.57654 21.6279 5.50267 21.5625C5.4288 21.4971 5.36853 21.4178 5.3253 21.3292C5.28208 21.2405 5.25673 21.1442 5.25073 21.0457C5.24472 20.9473 5.25817 20.8486 5.2903 20.7553C5.32242 20.6621 5.37261 20.5761 5.43798 20.5022L11.2505 13.9688V10.5169C6.65673 10.7119 3.42048 12.6225 3.38673 12.6431C3.30224 12.695 3.2083 12.7297 3.11034 12.745C3.01237 12.7604 2.91234 12.7562 2.81602 12.7326C2.71969 12.7091 2.629 12.6667 2.54917 12.6078C2.46935 12.549 2.40199 12.4749 2.35098 12.3899C2.29997 12.3049 2.26633 12.2106 2.25201 12.1124C2.23768 12.0143 2.24296 11.9143 2.26753 11.8183C2.2921 11.7222 2.33547 11.6319 2.39514 11.5528C2.45482 11.4736 2.5296 11.407 2.61517 11.3569C2.77548 11.2603 6.60517 9 12.0005 9C17.3958 9 21.2255 11.2603 21.3867 11.3569C21.4712 11.4076 21.5449 11.4744 21.6035 11.5536C21.6621 11.6328 21.7046 11.7228 21.7284 11.8183C21.7523 11.9139 21.7571 12.0133 21.7425 12.1107C21.728 12.2082 21.6944 12.3018 21.6436 12.3863Z" fill="#F34A23"/>
</svg>
