<svg width="20" height="21" viewBox="0 0 20 21" fill="none" xmlns="http://www.w3.org/2000/svg">
<path d="M11.0274 0.951172C12.1528 0.953032 12.7231 0.958992 13.2159 0.973662L13.41 0.980002C13.6342 0.987972 13.8554 0.997972 14.1221 1.01047C15.1862 1.05964 15.9121 1.22797 16.5496 1.47547C17.2087 1.72964 17.7654 2.07297 18.3212 2.62881C18.8762 3.18464 19.2196 3.74297 19.4746 4.40047C19.7212 5.03714 19.8896 5.76381 19.9396 6.82797C19.9515 7.09464 19.9611 7.31584 19.969 7.54008L19.9753 7.73417C19.9899 8.22691 19.9966 8.7973 19.9987 9.92274L19.9995 10.6683C19.9996 10.7594 19.9996 10.8534 19.9996 10.9504L19.9995 11.2325L19.9989 11.9782C19.997 13.1036 19.9911 13.674 19.9764 14.1667L19.97 14.3608C19.9621 14.5851 19.9521 14.8063 19.9396 15.0729C19.8904 16.1371 19.7212 16.8629 19.4746 17.5004C19.2204 18.1596 18.8762 18.7163 18.3212 19.2721C17.7654 19.8271 17.2062 20.1704 16.5496 20.4254C15.9121 20.6721 15.1862 20.8404 14.1221 20.8904C13.8554 20.9023 13.6342 20.912 13.41 20.9198L13.2159 20.9261C12.7231 20.9408 12.1528 20.9474 11.0274 20.9496L10.2817 20.9504C10.1906 20.9504 10.0966 20.9504 9.99963 20.9504H9.71753L8.97182 20.9497C7.84642 20.9479 7.27605 20.9419 6.7833 20.9272L6.58921 20.9209C6.36496 20.9129 6.14377 20.9029 5.87711 20.8904C4.81294 20.8413 4.08794 20.6721 3.44961 20.4254C2.79127 20.1713 2.23377 19.8271 1.67794 19.2721C1.12211 18.7163 0.779605 18.1571 0.524605 17.5004C0.277105 16.8629 0.109605 16.1371 0.0596054 15.0729C0.0477254 14.8063 0.0380352 14.5851 0.0301852 14.3608L0.0238953 14.1667C0.00926526 13.674 0.00259535 13.1036 0.000435352 11.9782L0.000305176 9.92274C0.00216518 8.7973 0.00811519 8.22691 0.0227852 7.73417L0.0291352 7.54008C0.0371052 7.31584 0.0471054 7.09464 0.0596054 6.82797C0.108765 5.76297 0.277105 5.03797 0.524605 4.40047C0.778765 3.74214 1.12211 3.18464 1.67794 2.62881C2.23377 2.07297 2.79211 1.73047 3.44961 1.47547C4.08711 1.22797 4.81211 1.06047 5.87711 1.01047C6.14377 0.998602 6.36496 0.988912 6.58921 0.981062L6.7833 0.974772C7.27605 0.960132 7.84642 0.953462 8.97182 0.951302L11.0274 0.951172ZM9.99963 5.95047C7.23671 5.95047 4.99961 8.19 4.99961 10.9504C4.99961 13.7133 7.23914 15.9504 9.99963 15.9504C12.7625 15.9504 14.9996 13.7109 14.9996 10.9504C14.9996 8.18757 12.76 5.95047 9.99963 5.95047ZM9.99963 7.95047C11.6565 7.95047 12.9996 9.29314 12.9996 10.9504C12.9996 12.6073 11.6569 13.9504 9.99963 13.9504C8.34273 13.9504 6.99961 12.6078 6.99961 10.9504C6.99961 9.29354 8.34223 7.95047 9.99963 7.95047ZM15.2496 4.45047C14.5603 4.45047 13.9996 5.01038 13.9996 5.69962C13.9996 6.38887 14.5595 6.94964 15.2496 6.94964C15.9388 6.94964 16.4996 6.38974 16.4996 5.69962C16.4996 5.01038 15.9379 4.44961 15.2496 4.45047Z" fill="white"/>
</svg>
