<svg width="19" height="21" viewBox="0 0 19 21" fill="none" xmlns="http://www.w3.org/2000/svg">
<path d="M13.9121 7.19361V14.4482C13.9121 18.0381 11.002 20.9482 7.41211 20.9482C3.82226 20.9482 0.912109 18.0381 0.912109 14.4482C0.912109 10.8583 3.82226 7.94824 7.41211 7.94824C7.92841 7.94824 8.43061 8.00843 8.91211 8.12217V11.285C8.45751 11.069 7.94891 10.9482 7.41211 10.9482C5.47911 10.9482 3.91211 12.5152 3.91211 14.4482C3.91211 16.3812 5.47911 17.9482 7.41211 17.9482C9.34511 17.9482 10.9121 16.3812 10.9121 14.4482V0.948242H13.9121C13.9121 3.70966 16.1507 5.94824 18.9121 5.94824V8.94824C17.0202 8.94824 15.2817 8.29152 13.9121 7.19361Z" fill="white"/>
</svg>
